<svg width="147" height="56" viewBox="0 0 147 56" fill="none" xmlns="http://www.w3.org/2000/svg">
<path d="M53.9168 40.1123V25.4046C54.053 25.817 54.4278 27.0541 55.0752 29.0815L59.7432 40.1123H64.0363L68.7043 29.0815L69.8628 25.4046V40.1123H74.2241V16.0576H69.488L61.8898 35.1639L54.2916 16.0576H49.5555V40.1123H53.9168Z" fill="#262626"/>
<path d="M93.7581 31.109C93.7581 28.6004 92.9744 26.573 91.4412 24.9579C89.9079 23.3771 87.9317 22.5868 85.5125 22.5868C83.0252 22.5868 80.9127 23.4115 79.2091 25.0953C77.4714 26.7792 76.6196 28.9441 76.6196 31.5901C76.6196 34.2361 77.4714 36.3667 79.175 38.0505C80.8446 39.7343 82.8889 40.5934 85.3081 40.5934C89.022 40.5934 91.6456 38.944 93.247 35.6107L90.0442 33.755C89.022 35.8512 87.4547 36.8821 85.3762 36.8821C82.8208 36.8821 81.0149 35.2327 80.7423 32.621H93.7581V31.109ZM85.3762 25.8857C87.7954 25.8857 89.3968 27.2259 89.8057 29.4595H80.7423C81.3897 27.3977 83.1615 25.8857 85.3762 25.8857Z" fill="#262626"/>
<path d="M112.096 28.4973C112.096 24.9235 109.745 22.5868 106.167 22.5868C103.748 22.5868 101.84 23.652 100.443 25.817V23.0679H96.1499V40.1123H100.443V31.4526C100.443 28.6004 102.079 26.6417 104.361 26.6417C106.644 26.6417 107.803 27.8444 107.803 30.2843V40.1123H112.096V28.4973Z" fill="#262626"/>
<path d="M116.162 26.573V35.1639C116.162 38.7722 117.968 40.5934 121.58 40.5934C122.636 40.5934 123.59 40.4216 124.442 40.1123L124.033 36.5385C123.59 36.676 123.113 36.7447 122.602 36.7447C121.171 36.7447 120.455 35.9543 120.455 34.3392V26.573H124.135V23.0679H120.455V18.4631H116.162V23.0679H113.538V26.573H116.162Z" fill="#262626"/>
<path d="M141.251 24.9579C139.412 23.3771 137.231 22.5868 134.744 22.5868C132.256 22.5868 130.076 23.3771 128.27 24.9579C126.43 26.573 125.51 28.7723 125.51 31.5901C125.51 34.4079 126.43 36.6072 128.27 38.188C130.076 39.8031 132.256 40.5934 134.744 40.5934C137.231 40.5934 139.412 39.8031 141.251 38.188C143.057 36.6072 143.977 34.4079 143.977 31.5901C143.977 28.7723 143.057 26.573 141.251 24.9579ZM131.336 35.1639C130.348 34.2705 129.871 33.0677 129.871 31.5901C129.871 30.1125 130.348 28.9097 131.336 27.9819C132.29 27.0884 133.415 26.6417 134.744 26.6417C136.072 26.6417 137.197 27.0884 138.185 27.9819C139.139 28.9097 139.616 30.1125 139.616 31.5901C139.616 33.0677 139.139 34.2705 138.185 35.1639C137.197 36.0918 136.072 36.5385 134.744 36.5385C133.415 36.5385 132.29 36.0918 131.336 35.1639Z" fill="#262626"/>
<path d="M11.3189 40.2691H0L8.0746 16.2744L17.0315 23.2725L11.3189 40.2691Z" fill="#637A6F"/>
<path d="M19.3653 16.2822L17.0305 23.2758L25.9438 30.2412L22.5427 40.2658H33.811L37.2451 30.2319L19.3653 16.2822Z" fill="#BDCCBE"/>
</svg>
